<?xml version="1.0" standalone="no"?>
<!DOCTYPE svg PUBLIC "-//W3C//DTD SVG 1.1//EN" "http://www.w3.org/Graphics/SVG/1.1/DTD/svg11.dtd" >
<svg xmlns="http://www.w3.org/2000/svg">
<metadata></metadata>
<defs>
<font id="retro_computerregular" horiz-adv-x="1730" >
<font-face units-per-em="2048" ascent="1638" descent="-410" />
<missing-glyph horiz-adv-x="700" />
<glyph unicode="&#xd;" horiz-adv-x="569" />
<glyph horiz-adv-x="0" />
<glyph horiz-adv-x="0" />
<glyph unicode=" "  horiz-adv-x="700" />
<glyph unicode="&#x09;" horiz-adv-x="700" />
<glyph unicode="&#xa0;" horiz-adv-x="700" />
<glyph unicode="!" horiz-adv-x="546" d="M125 0v292h296v-292h-296zM125 588v888h296v-888h-296z" />
<glyph unicode="&#x22;" horiz-adv-x="990" d="M125 1180v592h296v-296h-148v-296h-148zM569 1180v592h296v-296h-148v-296h-148z" />
<glyph unicode="#" d="M125 292v296h296v296h-296v296h296v296h296v-296h296v296h296v-328h296v-264h-296v-296h296v-296h-296v-292h-296v292h-296v-292h-296v292h-296zM717 588h296v296h-296v-296z" />
<glyph unicode="$" d="M125 0v296h1180v-296h-292v-292h-296v292h-592zM125 888v296h296v-296h-296zM421 592v296h884v-296h-884zM421 1184v296h296v296h296v-296h588v-296h-1180zM1305 296v296h296v-296h-296z" />
<glyph unicode="%" d="M125 0v292h296v-292h-296zM125 1032v296h148v-296h-148zM273 884v148h296v-148h-296zM273 1328v148h296v-148h-296zM421 292v296h296v-296h-296zM569 1032v296h148v-296h-148zM717 588v296h296v-296h-296zM1013 144v296h148v-296h-148zM1013 884v296h296v-296h-296z M1161 0v144h296v-144h-296zM1161 440v148h296v-148h-296zM1309 1180v296h296v-296h-296zM1457 144v296h148v-296h-148z" />
<glyph unicode="&#x26;" horiz-adv-x="2026" d="M125 292v296h296v-296h-296zM125 884v296h296v-296h-296zM421 0v292h888v296h592v-296h-296v-292h-1184zM421 588v296h888v-296h-888zM421 1180v296h888v-296h-888z" />
<glyph unicode="'" horiz-adv-x="546" d="M125 1180v592h296v-296h-148v-296h-148z" />
<glyph unicode="(" horiz-adv-x="842" d="M125 292v888h296v-888h-296zM421 0v292h296v-292h-296zM421 1180v296h296v-296h-296z" />
<glyph unicode=")" horiz-adv-x="842" d="M125 0v292h296v-292h-296zM125 1180v296h296v-296h-296zM421 292v888h296v-888h-296z" />
<glyph unicode="*" horiz-adv-x="990" d="M125 884v148h148v-148h-148zM125 1180v148h148v-148h-148zM273 1032v148h148v296h148v-296h148v-148h-148v-296h-148v296h-148zM717 884v148h148v-148h-148zM717 1180v148h148v-148h-148z" />
<glyph unicode="+" horiz-adv-x="1138" d="M125 588v296h296v296h296v-296h296v-296h-296v-296h-296v296h-296z" />
<glyph unicode="," horiz-adv-x="546" d="M125 0v296h296v-444h-148v148h-148z" />
<glyph unicode="-" horiz-adv-x="1138" d="M125 588v296h888v-296h-888z" />
<glyph unicode="." horiz-adv-x="546" d="M125 0v292h296v-292h-296z" />
<glyph unicode="/" d="M125 0v292h296v-292h-296zM421 292v296h296v-296h-296zM717 588v296h296v-296h-296zM1013 884v296h296v-296h-296zM1309 1180v296h296v-296h-296z" />
<glyph unicode="0" d="M125 292v888h296v-888h-296zM421 0v292h888v-292h-888zM421 1180v296h888v-296h-888zM1309 292v888h296v-888h-296z" />
<glyph unicode="1" horiz-adv-x="842" d="M125 884v296h296v296h296v-1476h-296v884h-296z" />
<glyph unicode="2" d="M125 0v588h296v-296h1184v-292h-1480zM125 1180v296h1184v-296h-1184zM421 588v296h888v-296h-888zM1309 884v296h296v-296h-296z" />
<glyph unicode="3" d="M125 292v296h296v-296h-296zM125 884v296h296v-296h-296zM421 0v292h888v-292h-888zM421 1180v296h888v-296h-888zM717 588v296h592v-296h-592zM1309 292v296h296v-296h-296zM1309 884v296h296v-296h-296z" />
<glyph unicode="4" d="M125 588v888h296v-592h888v592h296v-1476h-296v588h-1184z" />
<glyph unicode="5" d="M125 0v292h1184v-292h-1184zM125 588v888h1480v-296h-1184v-296h888v-296h-1184zM1309 292v296h296v-296h-296z" />
<glyph unicode="6" d="M125 292v888h296v-296h888v-296h-888v-296h-296zM421 0v292h888v-292h-888zM421 1180v296h1184v-296h-1184zM1309 292v296h296v-296h-296z" />
<glyph unicode="7" d="M125 1180v296h1480v-592h-296v296h-1184zM717 0v588h296v-588h-296zM1013 588v296h296v-296h-296z" />
<glyph unicode="8" d="M125 292v296h296v-296h-296zM125 884v296h296v-296h-296zM421 0v292h888v-292h-888zM421 588v296h888v-296h-888zM421 1180v296h888v-296h-888zM1309 292v296h296v-296h-296zM1309 884v296h296v-296h-296z" />
<glyph unicode="9" d="M125 0v292h1184v-292h-1184zM125 884v296h296v-296h-296zM421 588v296h888v296h296v-888h-296v296h-888zM421 1180v296h888v-296h-888z" />
<glyph unicode=":" horiz-adv-x="546" d="M125 0v292h296v-292h-296zM125 884v296h296v-296h-296z" />
<glyph unicode=";" horiz-adv-x="546" d="M125 0v296h296v-444h-148v148h-148zM125 888v296h296v-296h-296z" />
<glyph unicode="&#x3c;" horiz-adv-x="1138" d="M125 588v296h296v-296h-296zM421 292v296h296v-296h-296zM421 884v296h296v-296h-296zM717 0v292h296v-292h-296zM717 1180v296h296v-296h-296z" />
<glyph unicode="=" horiz-adv-x="1434" d="M125 292v296h1184v-296h-1184zM125 884v296h1184v-296h-1184z" />
<glyph unicode="&#x3e;" horiz-adv-x="1138" d="M125 0v292h296v-292h-296zM125 1180v296h296v-296h-296zM421 292v296h296v-296h-296zM421 884v296h296v-296h-296zM717 588v296h296v-296h-296z" />
<glyph unicode="?" d="M125 884v296h296v-296h-296zM421 1180v296h888v-296h-888zM717 0v292h296v-292h-296zM717 588v296h592v-296h-592zM1309 884v296h296v-296h-296z" />
<glyph unicode="@" d="M125 0v1180h296v-1180h-296zM421 1180v296h888v-296h-888zM717 0v884h592v296h296v-1180h-888zM1013 292h296v296h-296v-296z" />
<glyph unicode="A" d="M125 0v1180h296v-296h888v296h296v-1180h-296v588h-888v-588h-296zM421 1180v296h888v-296h-888z" />
<glyph unicode="B" d="M125 0v1476h1184v-296h-888v-296h888v-296h-888v-296h888v-292h-1184zM1309 292v296h296v-296h-296zM1309 884v296h296v-296h-296z" />
<glyph unicode="C" d="M125 292v888h296v-888h-296zM421 0v292h888v-292h-888zM421 1180v296h888v-296h-888zM1309 292v296h296v-296h-296zM1309 884v296h296v-296h-296z" />
<glyph unicode="D" d="M125 0v1476h1184v-296h-888v-888h888v-292h-1184zM1309 292v888h296v-888h-296z" />
<glyph unicode="E" d="M125 0v1476h1480v-296h-1184v-296h888v-296h-888v-296h1184v-292h-1480z" />
<glyph unicode="F" d="M125 0v1476h1480v-296h-1184v-296h888v-296h-888v-588h-296z" />
<glyph unicode="G" d="M125 292v888h296v-888h-296zM421 0v292h888v-292h-888zM421 1180v296h1184v-296h-1184zM717 588v296h888v-592h-296v296h-592z" />
<glyph unicode="H" d="M125 0v1476h296v-592h888v592h296v-1476h-296v588h-888v-588h-296z" />
<glyph unicode="I" d="M125 0v292h592v888h-592v296h1480v-296h-592v-888h592v-292h-1480z" />
<glyph unicode="J" d="M125 292v592h296v-592h-296zM421 0v292h888v-292h-888zM1013 1180v296h592v-1184h-296v888h-296z" />
<glyph unicode="K" d="M125 0v1476h296v-592h592v-296h-592v-588h-296zM1013 292v296h296v-296h-296zM1013 884v296h296v-296h-296zM1309 0v292h296v-292h-296zM1309 1180v296h296v-296h-296z" />
<glyph unicode="L" d="M125 0v1476h296v-1184h1184v-292h-1480z" />
<glyph unicode="M" d="M125 0v1476h296v-296h296v-296h-296v-884h-296zM717 588v296h296v-296h-296zM1013 884v296h296v296h296v-1476h-296v884h-296z" />
<glyph unicode="N" d="M125 0v1476h296v-296h296v-296h-296v-884h-296zM717 588v296h296v-296h-296zM1013 292v296h296v888h296v-1476h-296v292h-296z" />
<glyph unicode="O" d="M125 292v888h296v-888h-296zM421 0v292h888v-292h-888zM421 1180v296h888v-296h-888zM1309 292v888h296v-888h-296z" />
<glyph unicode="P" d="M125 0v1476h1184v-296h-888v-296h888v-296h-888v-588h-296zM1309 884v296h296v-296h-296z" />
<glyph unicode="Q" d="M125 292v888h296v-888h-296zM421 0v292h592v-292h-592zM421 1180v296h888v-296h-888zM1013 292v296h296v-296h-296zM1309 0v292h296v-292h-296zM1309 588v592h296v-592h-296z" />
<glyph unicode="R" d="M125 0v1476h1184v-296h-888v-296h888v-296h-888v-588h-296zM1309 0v588h296v-588h-296zM1309 884v296h296v-296h-296z" />
<glyph unicode="S" d="M125 0v292h1184v-292h-1184zM125 884v296h296v-296h-296zM421 588v296h888v-296h-888zM421 1180v296h1184v-296h-1184zM1309 292v296h296v-296h-296z" />
<glyph unicode="T" d="M125 1180v296h1480v-296h-592v-1180h-296v1180h-592z" />
<glyph unicode="U" d="M125 292v1184h296v-1184h-296zM421 0v292h888v-292h-888zM1309 292v1184h296v-1184h-296z" />
<glyph unicode="V" d="M125 588v888h296v-888h-296zM421 292v296h296v-296h-296zM717 0v292h296v-292h-296zM1013 292v296h296v-296h-296zM1309 588v888h296v-888h-296z" />
<glyph unicode="W" d="M125 0v1476h296v-888h296v-296h-296v-292h-296zM717 588v296h296v-296h-296zM1013 292v296h296v888h296v-1476h-296v292h-296z" />
<glyph unicode="X" d="M125 0v292h296v-292h-296zM125 1180v296h296v-296h-296zM421 292v296h296v-296h-296zM421 884v296h296v-296h-296zM717 588v296h296v-296h-296zM1013 292v296h296v-296h-296zM1013 884v296h296v-296h-296zM1309 0v292h296v-292h-296zM1309 1180v296h296v-296h-296z" />
<glyph unicode="Y" d="M125 1180v296h296v-296h-296zM421 884v296h296v-296h-296zM717 0v884h296v-884h-296zM1013 884v296h296v-296h-296zM1309 1180v296h296v-296h-296z" />
<glyph unicode="Z" d="M125 0v292h296v296h296v-296h888v-292h-1480zM125 1180v296h1480v-296h-296v-296h-296v296h-888zM717 588v296h296v-296h-296z" />
<glyph unicode="[" horiz-adv-x="842" d="M125 0v1476h592v-296h-296v-888h296v-292h-592z" />
<glyph unicode="\" d="M125 1180v296h296v-296h-296zM421 884v296h296v-296h-296zM717 588v296h296v-296h-296zM1013 292v296h296v-296h-296zM1309 0v292h296v-292h-296z" />
<glyph unicode="]" horiz-adv-x="842" d="M125 0v292h296v888h-296v296h592v-1476h-592z" />
<glyph unicode="_" d="M125 0v292h1480v-292h-1480z" />
<glyph unicode="a" d="M125 0v1180h296v-296h888v296h296v-1180h-296v588h-888v-588h-296zM421 1180v296h888v-296h-888z" />
<glyph unicode="b" d="M125 0v1476h1184v-296h-888v-296h888v-296h-888v-296h888v-292h-1184zM1309 292v296h296v-296h-296zM1309 884v296h296v-296h-296z" />
<glyph unicode="c" d="M125 292v888h296v-888h-296zM421 0v292h888v-292h-888zM421 1180v296h888v-296h-888zM1309 292v296h296v-296h-296zM1309 884v296h296v-296h-296z" />
<glyph unicode="d" d="M125 0v1476h1184v-296h-888v-888h888v-292h-1184zM1309 292v888h296v-888h-296z" />
<glyph unicode="e" d="M125 0v1476h1480v-296h-1184v-296h888v-296h-888v-296h1184v-292h-1480z" />
<glyph unicode="f" d="M125 0v1476h1480v-296h-1184v-296h888v-296h-888v-588h-296z" />
<glyph unicode="g" d="M125 292v888h296v-888h-296zM421 0v292h888v-292h-888zM421 1180v296h1184v-296h-1184zM717 588v296h888v-592h-296v296h-592z" />
<glyph unicode="h" d="M125 0v1476h296v-592h888v592h296v-1476h-296v588h-888v-588h-296z" />
<glyph unicode="i" d="M125 0v292h592v888h-592v296h1480v-296h-592v-888h592v-292h-1480z" />
<glyph unicode="j" d="M125 292v592h296v-592h-296zM421 0v292h888v-292h-888zM1013 1180v296h592v-1184h-296v888h-296z" />
<glyph unicode="k" d="M125 0v1476h296v-592h592v-296h-592v-588h-296zM1013 292v296h296v-296h-296zM1013 884v296h296v-296h-296zM1309 0v292h296v-292h-296zM1309 1180v296h296v-296h-296z" />
<glyph unicode="l" d="M125 0v1476h296v-1184h1184v-292h-1480z" />
<glyph unicode="m" d="M125 0v1476h296v-296h296v-296h-296v-884h-296zM717 588v296h296v-296h-296zM1013 884v296h296v296h296v-1476h-296v884h-296z" />
<glyph unicode="n" d="M125 0v1476h296v-296h296v-296h-296v-884h-296zM717 588v296h296v-296h-296zM1013 292v296h296v888h296v-1476h-296v292h-296z" />
<glyph unicode="o" d="M125 292v888h296v-888h-296zM421 0v292h888v-292h-888zM421 1180v296h888v-296h-888zM1309 292v888h296v-888h-296z" />
<glyph unicode="p" d="M125 0v1476h1184v-296h-888v-296h888v-296h-888v-588h-296zM1309 884v296h296v-296h-296z" />
<glyph unicode="q" d="M125 292v888h296v-888h-296zM421 0v292h592v-292h-592zM421 1180v296h888v-296h-888zM1013 292v296h296v-296h-296zM1309 0v292h296v-292h-296zM1309 588v592h296v-592h-296z" />
<glyph unicode="r" d="M125 0v1476h1184v-296h-888v-296h888v-296h-888v-588h-296zM1309 0v588h296v-588h-296zM1309 884v296h296v-296h-296z" />
<glyph unicode="s" d="M125 0v292h1184v-292h-1184zM125 884v296h296v-296h-296zM421 588v296h888v-296h-888zM421 1180v296h1184v-296h-1184zM1309 292v296h296v-296h-296z" />
<glyph unicode="t" d="M125 1180v296h1480v-296h-592v-1180h-296v1180h-592z" />
<glyph unicode="u" d="M125 292v1184h296v-1184h-296zM421 0v292h888v-292h-888zM1309 292v1184h296v-1184h-296z" />
<glyph unicode="v" d="M125 588v888h296v-888h-296zM421 292v296h296v-296h-296zM717 0v292h296v-292h-296zM1013 292v296h296v-296h-296zM1309 588v888h296v-888h-296z" />
<glyph unicode="w" d="M125 0v1476h296v-888h296v-296h-296v-292h-296zM717 588v296h296v-296h-296zM1013 292v296h296v888h296v-1476h-296v292h-296z" />
<glyph unicode="x" d="M125 0v292h296v-292h-296zM125 1180v296h296v-296h-296zM421 292v296h296v-296h-296zM421 884v296h296v-296h-296zM717 588v296h296v-296h-296zM1013 292v296h296v-296h-296zM1013 884v296h296v-296h-296zM1309 0v292h296v-292h-296zM1309 1180v296h296v-296h-296z" />
<glyph unicode="y" d="M125 1180v296h296v-296h-296zM421 884v296h296v-296h-296zM717 0v884h296v-884h-296zM1013 884v296h296v-296h-296zM1309 1180v296h296v-296h-296z" />
<glyph unicode="z" d="M125 0v292h296v296h296v-296h888v-292h-1480zM125 1180v296h1480v-296h-296v-296h-296v296h-888zM717 588v296h296v-296h-296z" />
<glyph unicode="{" horiz-adv-x="1138" d="M125 588v296h296v592h592v-296h-296v-888h296v-292h-592v588h-296z" />
<glyph unicode="|" horiz-adv-x="546" d="M125 0v1476h296v-1476h-296z" />
<glyph unicode="}" horiz-adv-x="1138" d="M125 0v292h296v888h-296v296h592v-592h296v-296h-296v-588h-592z" />
<glyph unicode="&#xad;" horiz-adv-x="1138" d="M125 588v296h888v-296h-888z" />
<glyph unicode="&#x2000;" horiz-adv-x="888" />
<glyph unicode="&#x2001;" horiz-adv-x="1776" />
<glyph unicode="&#x2002;" horiz-adv-x="888" />
<glyph unicode="&#x2003;" horiz-adv-x="1776" />
<glyph unicode="&#x2004;" horiz-adv-x="592" />
<glyph unicode="&#x2005;" horiz-adv-x="444" />
<glyph unicode="&#x2006;" horiz-adv-x="296" />
<glyph unicode="&#x2007;" horiz-adv-x="296" />
<glyph unicode="&#x2008;" horiz-adv-x="222" />
<glyph unicode="&#x2009;" horiz-adv-x="355" />
<glyph unicode="&#x200a;" horiz-adv-x="98" />
<glyph unicode="&#x2010;" horiz-adv-x="1138" d="M125 588v296h888v-296h-888z" />
<glyph unicode="&#x2011;" horiz-adv-x="1138" d="M125 588v296h888v-296h-888z" />
<glyph unicode="&#x2012;" horiz-adv-x="1138" d="M125 588v296h888v-296h-888z" />
<glyph unicode="&#x2013;" horiz-adv-x="1274" d="M125 588v296h1024v-296h-1024z" />
<glyph unicode="&#x2014;" horiz-adv-x="2298" d="M125 588v296h2048v-296h-2048z" />
<glyph unicode="&#x202f;" horiz-adv-x="355" />
<glyph unicode="&#x205f;" horiz-adv-x="444" />
<glyph unicode="&#x25fc;" horiz-adv-x="1475" d="M0 0v1475h1475v-1475h-1475z" />
</font>
</defs>
</svg>
